<svg xmlns="http://www.w3.org/2000/svg" version="1.1" xmlns:xlink="http://www.w3.org/1999/xlink" xmlns:svgjs="http://svgjs.dev/svgjs" width="1000" height="202" viewBox="0 0 1000 202"><g transform="matrix(1,0,0,1,-0.6060606060606233,0.3059255428695167)"><svg viewBox="0 0 396 80" data-background-color="#ffffff" preserveAspectRatio="xMidYMid meet" height="202" width="1000" xmlns="http://www.w3.org/2000/svg" xmlns:xlink="http://www.w3.org/1999/xlink"><defs></defs><g id="tight-bounds" transform="matrix(1,0,0,1,0.2400000000000091,-0.12115638212503654)"><svg viewBox="0 0 395.52 80.24231501296447" height="80.24231501296447" width="395.52"><g><svg viewBox="0 0 434.2429498147594 88.09835045306141" height="80.24231501296447" width="395.52"><g><svg viewBox="0 0 434.2429498147594 88.09835045306141" height="88.09835045306141" width="434.2429498147594"><g><svg viewBox="0 0 434.2429498147594 88.09835045306141" height="88.09835045306141" width="434.2429498147594"><g><svg viewBox="0 0 434.2429498147594 58.571600000000004" height="58.571600000000004" width="434.2429498147594"><g><svg><g></g><g></g></svg></g><g><svg><g><svg></svg></g><g></g></svg></g><g id="text-0"><svg viewBox="0 0 434.2429498147594 58.571600000000004" height="58.571600000000004" width="434.2429498147594"><g transform="matrix(1,0,0,1,0,0)"><svg width="361.05670000000003" viewBox="1.399999976158142 -35.599998474121094 223.1300048828125 36.19999694824219" height="58.571600000000004" data-palette-color="#fe5512"><path d="M15.65 0.6Q11.5 0.6 7.63-0.53 3.75-1.65 1.4-3.45L1.4-3.45 4.15-9.55Q6.4-7.9 9.5-6.9 12.6-5.9 15.7-5.9L15.7-5.9Q19.15-5.9 20.8-6.93 22.45-7.95 22.45-9.65L22.45-9.65Q22.45-10.9 21.48-11.73 20.5-12.55 18.98-13.05 17.45-13.55 14.85-14.15L14.85-14.15Q10.85-15.1 8.3-16.05 5.75-17 3.93-19.1 2.1-21.2 2.1-24.7L2.1-24.7Q2.1-27.75 3.75-30.23 5.4-32.7 8.72-34.15 12.05-35.6 16.85-35.6L16.85-35.6Q20.2-35.6 23.4-34.8 26.6-34 29-32.5L29-32.5 26.5-26.35Q21.65-29.1 16.8-29.1L16.8-29.1Q13.4-29.1 11.78-28 10.15-26.9 10.15-25.1L10.15-25.1Q10.15-23.3 12.03-22.43 13.9-21.55 17.75-20.7L17.75-20.7Q21.75-19.75 24.3-18.8 26.85-17.85 28.68-15.8 30.5-13.75 30.5-10.25L30.5-10.25Q30.5-7.25 28.83-4.78 27.15-2.3 23.8-0.85 20.45 0.6 15.65 0.6L15.65 0.6ZM42.8 0L42.8-28.4 31.6-28.4 31.6-35 62.1-35 62.1-28.4 50.9-28.4 50.9 0 42.8 0ZM90.84 0L87.75-7.5 71.5-7.5 68.39 0 60.09 0 75.7-35 83.7-35 99.34 0 90.84 0ZM74.09-13.65L85.2-13.65 79.65-27.05 74.09-13.65ZM133.99 0L125.29 0 118.54-9.75 118.14-9.75 111.09-9.75 111.09 0 102.99 0 102.99-35 118.14-35Q122.79-35 126.22-33.45 129.64-31.9 131.49-29.05 133.34-26.2 133.34-22.3L133.34-22.3Q133.34-18.4 131.47-15.58 129.59-12.75 126.14-11.25L126.14-11.25 133.99 0ZM125.14-22.3Q125.14-25.25 123.24-26.83 121.34-28.4 117.69-28.4L117.69-28.4 111.09-28.4 111.09-16.2 117.69-16.2Q121.34-16.2 123.24-17.8 125.14-19.4 125.14-22.3L125.14-22.3ZM146.49 0L146.49-28.4 135.29-28.4 135.29-35 165.79-35 165.79-28.4 154.59-28.4 154.59 0 146.49 0ZM170.89 0.4Q168.84 0.4 167.44-1 166.04-2.4 166.04-4.5L166.04-4.5Q166.04-6.65 167.44-7.98 168.84-9.3 170.89-9.3L170.89-9.3Q172.94-9.3 174.34-7.98 175.74-6.65 175.74-4.5L175.74-4.5Q175.74-2.4 174.34-1 172.94 0.4 170.89 0.4L170.89 0.4ZM181.59 0L181.59-35 189.69-35 189.69 0 181.59 0ZM205.23 0L205.23-28.4 194.03-28.4 194.03-35 224.53-35 224.53-28.4 213.33-28.4 213.33 0 205.23 0Z" opacity="1" transform="matrix(1,0,0,1,0,0)" fill="#fe5512" class="undefined-text-0" data-fill-palette-color="primary"></path></svg></g><g><svg xmlns="http://www.w3.org/2000/svg" xmlns:xlink="http://www.w3.org/1999/xlink" version="1.1" x="374.8851" y="0" viewBox="0.33799999952316284 1.1489982604980469 99.35200500488281 98.03599548339844" enable-background="new 0 0 100 100" xml:space="preserve" height="58.571600000000004" width="59.35784981475939" class="icon-x-0" data-fill-palette-color="accent" id="x-0"><path d="M30.388 45.532c-3.021 0-5.477 2.456-5.477 5.477 0 3.02 2.457 5.476 5.477 5.476 3.02 0 5.475-2.456 5.475-5.476C35.863 47.987 33.408 45.532 30.388 45.532zM30.388 53.641c-1.452 0-2.633-1.182-2.633-2.632 0-1.452 1.181-2.633 2.633-2.633 1.451 0 2.632 1.181 2.632 2.633C33.02 52.459 31.839 53.641 30.388 53.641z" fill="#fe5512" data-fill-palette-color="accent"></path><path d="M42.179 47.657l-2.135-0.525c-0.042-0.096-0.085-0.193-0.131-0.293l1.078-1.811c0.333-0.56 0.243-1.272-0.217-1.733l-2.665-2.658c-0.457-0.456-1.165-0.547-1.724-0.221l-1.835 1.077c-0.099-0.048-0.2-0.094-0.302-0.139l-0.521-2.146c-0.156-0.637-0.726-1.085-1.382-1.085h-3.759c-0.657 0-1.227 0.448-1.382 1.085l-0.503 2.071c-0.134 0.052-0.269 0.109-0.405 0.171l-1.704-1.003c-0.559-0.33-1.272-0.238-1.73 0.223l-2.657 2.675c-0.459 0.461-0.545 1.174-0.212 1.732l0.958 1.6c-0.088 0.178-0.174 0.362-0.255 0.558l-1.944 0.482c-0.635 0.156-1.08 0.725-1.08 1.378v3.759c0 0.654 0.447 1.225 1.082 1.382l1.906 0.467c0.078 0.194 0.163 0.393 0.256 0.592l-0.959 1.611c-0.332 0.56-0.243 1.274 0.218 1.734l2.664 2.657c0.464 0.464 1.186 0.549 1.746 0.206l1.624-0.992c0.187 0.087 0.385 0.176 0.594 0.259l0.463 1.862c0.157 0.634 0.726 1.079 1.379 1.079h3.758c0.654 0 1.222-0.445 1.38-1.082l0.49-1.971c0.158-0.067 0.315-0.139 0.477-0.217l1.722 1.037c0.561 0.337 1.276 0.25 1.737-0.212l2.659-2.653c0.461-0.46 0.55-1.177 0.213-1.736l-1.116-1.862c0.05-0.109 0.098-0.22 0.145-0.333l2.068-0.505c0.635-0.157 1.083-0.728 1.083-1.381v-3.76C43.261 48.384 42.813 47.813 42.179 47.657zM40.417 51.682l-1.725 0.424c-0.495 0.122-0.887 0.496-1.028 0.988-0.131 0.453-0.368 0.93-0.581 1.345-0.223 0.437-0.207 0.96 0.047 1.381l0.942 1.57-1.086 1.083-1.458-0.877c-0.441-0.266-0.99-0.271-1.435-0.02-0.531 0.304-1.004 0.516-1.446 0.657-0.472 0.147-0.833 0.532-0.953 1.014l-0.403 1.621h-1.535l-0.383-1.536c-0.124-0.497-0.506-0.89-1-1.027-0.445-0.123-0.924-0.329-1.555-0.67-0.445-0.241-0.984-0.226-1.416 0.039l-1.348 0.822-1.089-1.085 0.795-1.338c0.259-0.436 0.267-0.974 0.022-1.415-0.309-0.556-0.527-1.062-0.668-1.546-0.142-0.488-0.533-0.864-1.025-0.983l-1.576-0.387V50.21l1.599-0.397c0.487-0.119 0.876-0.488 1.021-0.97 0.162-0.542 0.453-1.092 0.688-1.511 0.25-0.445 0.242-0.987-0.02-1.426l-0.802-1.339 1.101-1.109 1.409 0.831c0.425 0.25 0.948 0.263 1.383 0.034 0.521-0.272 0.978-0.465 1.401-0.587 0.49-0.142 0.866-0.534 0.987-1.03l0.422-1.738h1.525l0.434 1.787c0.118 0.485 0.482 0.874 0.958 1.021 0.424 0.131 0.878 0.365 1.306 0.594 0.437 0.233 0.961 0.223 1.389-0.027l1.562-0.916 1.104 1.101-0.91 1.528c-0.255 0.43-0.267 0.961-0.029 1.4 0.27 0.502 0.452 0.917 0.573 1.305 0.149 0.476 0.535 0.838 1.017 0.958l1.784 0.438V51.682z" fill="#fe5512" data-fill-palette-color="accent"></path><path d="M14.936 61.41c-1.509 0-2.738 1.226-2.738 2.736 0 1.51 1.229 2.738 2.738 2.738 1.51 0 2.738-1.229 2.738-2.738C17.673 62.636 16.446 61.41 14.936 61.41zM14.936 65.462c-0.726 0-1.316-0.59-1.316-1.315 0-0.727 0.59-1.314 1.316-1.314 0.725 0 1.317 0.588 1.317 1.314C16.251 64.872 15.661 65.462 14.936 65.462z" fill="#fe5512" data-fill-palette-color="accent"></path><path d="M20.832 62.471l-1.068-0.263c-0.021-0.048-0.042-0.096-0.065-0.146l0.539-0.905c0.167-0.28 0.123-0.638-0.109-0.868l-1.332-1.328c-0.229-0.229-0.583-0.273-0.862-0.111l-0.918 0.539c-0.049-0.024-0.099-0.046-0.151-0.067l-0.26-1.074c-0.077-0.319-0.363-0.544-0.69-0.544h-1.879c-0.329 0-0.614 0.227-0.691 0.544l-0.252 1.035c-0.067 0.026-0.135 0.054-0.203 0.087l-0.852-0.502c-0.279-0.165-0.636-0.119-0.864 0.11l-1.33 1.337c-0.229 0.233-0.272 0.589-0.105 0.866l0.478 0.803c-0.044 0.088-0.086 0.18-0.128 0.277l-0.972 0.241c-0.316 0.078-0.54 0.362-0.54 0.689v1.881c0 0.325 0.223 0.609 0.542 0.689l0.953 0.233c0.04 0.097 0.082 0.196 0.128 0.297l-0.479 0.806c-0.167 0.279-0.122 0.636 0.109 0.866l1.332 1.328c0.231 0.231 0.593 0.275 0.873 0.104l0.812-0.498c0.093 0.046 0.192 0.087 0.296 0.131l0.232 0.932c0.08 0.316 0.364 0.538 0.689 0.538h1.88c0.327 0 0.61-0.222 0.689-0.541l0.245-0.985c0.078-0.033 0.157-0.07 0.237-0.108l0.862 0.519c0.28 0.169 0.638 0.124 0.868-0.106l1.329-1.326c0.231-0.229 0.276-0.588 0.107-0.868l-0.558-0.932c0.025-0.055 0.049-0.108 0.072-0.164l1.034-0.254c0.318-0.079 0.541-0.363 0.541-0.691v-1.88C21.372 62.836 21.149 62.552 20.832 62.471zM19.951 64.483l-0.863 0.213c-0.248 0.061-0.444 0.247-0.514 0.492-0.065 0.229-0.185 0.468-0.29 0.673-0.112 0.22-0.104 0.479 0.022 0.691l0.471 0.783-0.544 0.543-0.728-0.438c-0.221-0.133-0.495-0.135-0.717-0.009-0.267 0.151-0.503 0.259-0.723 0.327-0.237 0.076-0.417 0.268-0.477 0.509l-0.202 0.81H14.62l-0.191-0.769c-0.062-0.248-0.253-0.445-0.501-0.513-0.221-0.062-0.461-0.165-0.777-0.336-0.223-0.12-0.492-0.111-0.708 0.019l-0.673 0.413-0.546-0.543 0.399-0.669c0.129-0.219 0.133-0.488 0.009-0.709-0.153-0.275-0.263-0.529-0.333-0.773-0.071-0.243-0.266-0.43-0.514-0.49L10 64.514v-0.767l0.8-0.197c0.243-0.061 0.438-0.245 0.509-0.486 0.081-0.271 0.227-0.545 0.344-0.756 0.126-0.221 0.122-0.492-0.01-0.714l-0.4-0.669 0.55-0.554 0.706 0.415c0.212 0.126 0.473 0.133 0.69 0.018 0.261-0.137 0.488-0.231 0.701-0.293 0.245-0.071 0.433-0.269 0.494-0.517l0.211-0.868h0.762l0.217 0.892c0.059 0.244 0.242 0.438 0.481 0.513 0.211 0.064 0.438 0.183 0.652 0.298 0.219 0.116 0.481 0.11 0.694-0.014l0.78-0.458 0.553 0.549-0.454 0.765c-0.128 0.215-0.133 0.479-0.015 0.699 0.135 0.251 0.226 0.458 0.287 0.651 0.074 0.238 0.267 0.419 0.509 0.479l0.891 0.22V64.483z" fill="#fe5512" data-fill-palette-color="accent"></path><circle cx="49.503" cy="82.694" r="1.6" fill="#fe5512" data-fill-palette-color="accent"></circle><path d="M99.69 50.825c0-27.435-22.24-49.676-49.675-49.676C22.58 1.149 0.338 23.39 0.338 50.825c0 23.083 15.744 42.485 37.079 48.062 0.26 0.105 0.573 0.183 0.941 0.234 0.287 0.04 0.605 0.063 0.967 0.063h0.745c-0.859-0.002-1.555-0.746-1.555-1.667 0-0.208 0.039-0.404 0.103-0.586 0 0 0 0-0.001 0 0.053-0.159 0.224-0.554 0.644-0.832 0.089-0.057 0.184-0.108 0.285-0.147 0.077-0.042 0.15-0.08 0.234-0.123 3.525-1.194 4.776-3.41 5.742-8.53h8.929c1.023 5.061 2.274 7.279 5.799 8.53 0.131 0.064 0.247 0.125 0.359 0.186 0.487 0.303 0.725 0.812 0.781 0.951 0.058 0.172 0.095 0.355 0.095 0.552 0 0.921-0.695 1.665-1.555 1.667h0.776c0.349 0 0.657-0.02 0.937-0.057 0.412-0.052 0.752-0.141 1.03-0.258 0.446-0.117 0.888-0.249 1.329-0.379h0.032v-0.009C84.642 92.431 99.69 73.39 99.69 50.825zM28.634 84.971c-1.138 0-1.934-0.572-1.934-1.766v-3.354h46.629v3.354c0 1.193-0.797 1.766-1.933 1.766H28.634zM63.306 95.315c-0.428-0.469-1.123-0.88-2.202-1.42 0 0 0 0-0.057-0.056-2.389-0.797-3.412-2.047-4.379-6.597h14.729c2.33 0 4.207-1.648 4.207-4.038V52.216c0-2.332-1.877-4.209-4.207-4.209H45.836c0.139 0.742 0.227 1.5 0.258 2.275h25.245c1.193 0 1.934 0.797 1.934 1.934v25.929H26.7V66.2c-0.783-0.186-1.543-0.435-2.274-0.733v17.738c0 2.332 1.876 4.038 4.208 4.038h14.727c-0.966 4.55-1.989 5.8-4.378 6.597-1.113 0.557-1.832 0.979-2.27 1.474C17.556 89.594 3.589 71.843 3.589 50.825c0-25.641 20.785-46.427 46.425-46.427 25.642 0 46.427 20.787 46.427 46.427C96.44 71.845 82.469 89.6 63.306 95.315z" fill="#fe5512" data-fill-palette-color="accent"></path></svg></g></svg></g></svg></g><g transform="matrix(1,0,0,1,82.94040341461906,72.3989490416)"><svg viewBox="0 0 268.3621429855213 15.699401411461412" height="15.699401411461412" width="268.3621429855213"><g transform="matrix(1,0,0,1,0,0)"><svg width="268.3621429855213" viewBox="-0.699999988079071 -39.349998474121094 838.3800048828125 49.04999923706055" height="15.699401411461412" data-palette-color="#fe5512"><path d="M34.55-35L20.95-12.4 20.95 0 12.85 0 12.85-12.5-0.7-35 7.9-35 17.25-19.45 26.6-35 34.55-35ZM47.2 0.4Q42.95 0.4 39.57-1.38 36.2-3.15 34.3-6.3 32.4-9.45 32.4-13.45L32.4-13.45Q32.4-17.45 34.3-20.6 36.2-23.75 39.57-25.53 42.95-27.3 47.2-27.3L47.2-27.3Q51.45-27.3 54.8-25.53 58.15-23.75 60.05-20.6 61.95-17.45 61.95-13.45L61.95-13.45Q61.95-9.45 60.05-6.3 58.15-3.15 54.8-1.38 51.45 0.4 47.2 0.4L47.2 0.4ZM47.2-6Q50.2-6 52.12-8.03 54.05-10.05 54.05-13.45L54.05-13.45Q54.05-16.85 52.12-18.88 50.2-20.9 47.2-20.9L47.2-20.9Q44.2-20.9 42.25-18.88 40.3-16.85 40.3-13.45L40.3-13.45Q40.3-10.05 42.25-8.03 44.2-6 47.2-6L47.2-6ZM86.45-26.9L94.25-26.9 94.25 0 86.84 0 86.84-3.2Q85.3-1.45 83.15-0.53 81 0.4 78.5 0.4L78.5 0.4Q73.2 0.4 70.09-2.65 67-5.7 67-11.7L67-11.7 67-26.9 74.8-26.9 74.8-12.85Q74.8-6.35 80.25-6.35L80.25-6.35Q83.05-6.35 84.75-8.18 86.45-10 86.45-13.6L86.45-13.6 86.45-26.9ZM108.94-23.35Q110.34-25.3 112.72-26.3 115.09-27.3 118.19-27.3L118.19-27.3 118.19-20.1Q116.89-20.2 116.44-20.2L116.44-20.2Q113.09-20.2 111.19-18.32 109.29-16.45 109.29-12.7L109.29-12.7 109.29 0 101.49 0 101.49-26.9 108.94-26.9 108.94-23.35ZM149.99 0.4Q145.74 0.4 142.36-1.38 138.99-3.15 137.09-6.3 135.19-9.45 135.19-13.45L135.19-13.45Q135.19-17.45 137.09-20.6 138.99-23.75 142.36-25.53 145.74-27.3 149.99-27.3L149.99-27.3Q154.24-27.3 157.59-25.53 160.94-23.75 162.84-20.6 164.74-17.45 164.74-13.45L164.74-13.45Q164.74-9.45 162.84-6.3 160.94-3.15 157.59-1.38 154.24 0.4 149.99 0.4L149.99 0.4ZM149.99-6Q152.99-6 154.91-8.03 156.84-10.05 156.84-13.45L156.84-13.45Q156.84-16.85 154.91-18.88 152.99-20.9 149.99-20.9L149.99-20.9Q146.99-20.9 145.04-18.88 143.09-16.85 143.09-13.45L143.09-13.45Q143.09-10.05 145.04-8.03 146.99-6 149.99-6L149.99-6ZM186.29-27.3Q191.29-27.3 194.36-24.3 197.44-21.3 197.44-15.4L197.44-15.4 197.44 0 189.64 0 189.64-14.2Q189.64-17.4 188.24-18.98 186.84-20.55 184.19-20.55L184.19-20.55Q181.24-20.55 179.49-18.73 177.74-16.9 177.74-13.3L177.74-13.3 177.74 0 169.94 0 169.94-26.9 177.39-26.9 177.39-23.75Q178.94-25.45 181.24-26.38 183.53-27.3 186.29-27.3L186.29-27.3ZM204.48 0L204.48-37.1 212.28-37.1 212.28 0 204.48 0ZM219.53 0L219.53-26.9 227.33-26.9 227.33 0 219.53 0ZM223.43-30.65Q221.28-30.65 219.93-31.9 218.58-33.15 218.58-35L218.58-35Q218.58-36.85 219.93-38.1 221.28-39.35 223.43-39.35L223.43-39.35Q225.58-39.35 226.93-38.15 228.28-36.95 228.28-35.15L228.28-35.15Q228.28-33.2 226.93-31.93 225.58-30.65 223.43-30.65L223.43-30.65ZM250.93-27.3Q255.93-27.3 259-24.3 262.08-21.3 262.08-15.4L262.08-15.4 262.08 0 254.28 0 254.28-14.2Q254.28-17.4 252.88-18.98 251.48-20.55 248.83-20.55L248.83-20.55Q245.88-20.55 244.13-18.73 242.38-16.9 242.38-13.3L242.38-13.3 242.38 0 234.58 0 234.58-26.9 242.03-26.9 242.03-23.75Q243.58-25.45 245.88-26.38 248.18-27.3 250.93-27.3L250.93-27.3ZM295.78-13.35Q295.78-13.2 295.63-11.25L295.63-11.25 275.28-11.25Q275.83-8.75 277.88-7.3 279.93-5.85 282.98-5.85L282.98-5.85Q285.08-5.85 286.7-6.48 288.33-7.1 289.73-8.45L289.73-8.45 293.88-3.95Q290.08 0.4 282.78 0.4L282.78 0.4Q278.23 0.4 274.73-1.38 271.23-3.15 269.33-6.3 267.43-9.45 267.43-13.45L267.43-13.45Q267.43-17.4 269.3-20.58 271.18-23.75 274.45-25.53 277.73-27.3 281.78-27.3L281.78-27.3Q285.73-27.3 288.93-25.6 292.13-23.9 293.95-20.73 295.78-17.55 295.78-13.35L295.78-13.35ZM281.83-21.4Q279.18-21.4 277.38-19.9 275.58-18.4 275.18-15.8L275.18-15.8 288.43-15.8Q288.03-18.35 286.23-19.88 284.43-21.4 281.83-21.4L281.83-21.4ZM331.02-27.3Q334.77-27.3 337.85-25.58 340.92-23.85 342.67-20.73 344.42-17.6 344.42-13.45L344.42-13.45Q344.42-9.3 342.67-6.18 340.92-3.05 337.85-1.33 334.77 0.4 331.02 0.4L331.02 0.4Q325.87 0.4 322.92-2.85L322.92-2.85 322.92 9.7 315.12 9.7 315.12-26.9 322.57-26.9 322.57-23.8Q325.47-27.3 331.02-27.3L331.02-27.3ZM329.67-6Q332.67-6 334.6-8.03 336.52-10.05 336.52-13.45L336.52-13.45Q336.52-16.85 334.6-18.88 332.67-20.9 329.67-20.9L329.67-20.9Q326.67-20.9 324.75-18.88 322.82-16.85 322.82-13.45L322.82-13.45Q322.82-10.05 324.75-8.03 326.67-6 329.67-6L329.67-6ZM357.07-23.35Q358.47-25.3 360.84-26.3 363.22-27.3 366.32-27.3L366.32-27.3 366.32-20.1Q365.02-20.2 364.57-20.2L364.57-20.2Q361.22-20.2 359.32-18.32 357.42-16.45 357.42-12.7L357.42-12.7 357.42 0 349.62 0 349.62-26.9 357.07-26.9 357.07-23.35ZM397.07-13.35Q397.07-13.2 396.92-11.25L396.92-11.25 376.57-11.25Q377.12-8.75 379.17-7.3 381.22-5.85 384.27-5.85L384.27-5.85Q386.37-5.85 387.99-6.48 389.62-7.1 391.02-8.45L391.02-8.45 395.17-3.95Q391.37 0.4 384.07 0.4L384.07 0.4Q379.52 0.4 376.02-1.38 372.52-3.15 370.62-6.3 368.72-9.45 368.72-13.45L368.72-13.45Q368.72-17.4 370.59-20.58 372.47-23.75 375.74-25.53 379.02-27.3 383.07-27.3L383.07-27.3Q387.02-27.3 390.22-25.6 393.42-23.9 395.24-20.73 397.07-17.55 397.07-13.35L397.07-13.35ZM383.12-21.4Q380.47-21.4 378.67-19.9 376.87-18.4 376.47-15.8L376.47-15.8 389.72-15.8Q389.32-18.35 387.52-19.88 385.72-21.4 383.12-21.4L383.12-21.4ZM411.31 0.4Q407.96 0.4 404.76-0.43 401.56-1.25 399.66-2.5L399.66-2.5 402.26-8.1Q404.06-6.95 406.61-6.23 409.16-5.5 411.61-5.5L411.61-5.5Q416.56-5.5 416.56-7.95L416.56-7.95Q416.56-9.1 415.21-9.6 413.86-10.1 411.06-10.45L411.06-10.45Q407.76-10.95 405.61-11.6 403.46-12.25 401.89-13.9 400.31-15.55 400.31-18.6L400.31-18.6Q400.31-21.15 401.79-23.13 403.26-25.1 406.09-26.2 408.91-27.3 412.76-27.3L412.76-27.3Q415.61-27.3 418.44-26.68 421.26-26.05 423.11-24.95L423.11-24.95 420.51-19.4Q416.96-21.4 412.76-21.4L412.76-21.4Q410.26-21.4 409.01-20.7 407.76-20 407.76-18.9L407.76-18.9Q407.76-17.65 409.11-17.15 410.46-16.65 413.41-16.2L413.41-16.2Q416.71-15.65 418.81-15.03 420.91-14.4 422.46-12.75 424.01-11.1 424.01-8.15L424.01-8.15Q424.01-5.65 422.51-3.7 421.01-1.75 418.14-0.68 415.26 0.4 411.31 0.4L411.31 0.4ZM455.16-13.35Q455.16-13.2 455.01-11.25L455.01-11.25 434.66-11.25Q435.21-8.75 437.26-7.3 439.31-5.85 442.36-5.85L442.36-5.85Q444.46-5.85 446.09-6.48 447.71-7.1 449.11-8.45L449.11-8.45 453.26-3.95Q449.46 0.4 442.16 0.4L442.16 0.4Q437.61 0.4 434.11-1.38 430.61-3.15 428.71-6.3 426.81-9.45 426.81-13.45L426.81-13.45Q426.81-17.4 428.69-20.58 430.56-23.75 433.84-25.53 437.11-27.3 441.16-27.3L441.16-27.3Q445.11-27.3 448.31-25.6 451.51-23.9 453.34-20.73 455.16-17.55 455.16-13.35L455.16-13.35ZM441.21-21.4Q438.56-21.4 436.76-19.9 434.96-18.4 434.56-15.8L434.56-15.8 447.81-15.8Q447.41-18.35 445.61-19.88 443.81-21.4 441.21-21.4L441.21-21.4ZM476.71-27.3Q481.71-27.3 484.78-24.3 487.86-21.3 487.86-15.4L487.86-15.4 487.86 0 480.06 0 480.06-14.2Q480.06-17.4 478.66-18.98 477.26-20.55 474.61-20.55L474.61-20.55Q471.66-20.55 469.91-18.73 468.16-16.9 468.16-13.3L468.16-13.3 468.16 0 460.36 0 460.36-26.9 467.81-26.9 467.81-23.75Q469.36-25.45 471.66-26.38 473.96-27.3 476.71-27.3L476.71-27.3ZM508.21 0.4Q503.91 0.4 500.48-1.38 497.06-3.15 495.13-6.3 493.21-9.45 493.21-13.45L493.21-13.45Q493.21-17.45 495.13-20.6 497.06-23.75 500.48-25.53 503.91-27.3 508.21-27.3L508.21-27.3Q512.46-27.3 515.63-25.53 518.81-23.75 520.26-20.45L520.26-20.45 514.21-17.2Q512.11-20.9 508.16-20.9L508.16-20.9Q505.11-20.9 503.11-18.9 501.11-16.9 501.11-13.45L501.11-13.45Q501.11-10 503.11-8 505.11-6 508.16-6L508.16-6Q512.16-6 514.21-9.7L514.21-9.7 520.26-6.4Q518.81-3.2 515.63-1.4 512.46 0.4 508.21 0.4L508.21 0.4ZM550.75-13.35Q550.75-13.2 550.6-11.25L550.6-11.25 530.25-11.25Q530.8-8.75 532.85-7.3 534.9-5.85 537.95-5.85L537.95-5.85Q540.05-5.85 541.68-6.48 543.3-7.1 544.7-8.45L544.7-8.45 548.85-3.95Q545.05 0.4 537.75 0.4L537.75 0.4Q533.2 0.4 529.7-1.38 526.2-3.15 524.3-6.3 522.4-9.45 522.4-13.45L522.4-13.45Q522.4-17.4 524.28-20.58 526.15-23.75 529.43-25.53 532.7-27.3 536.75-27.3L536.75-27.3Q540.7-27.3 543.9-25.6 547.1-23.9 548.93-20.73 550.75-17.55 550.75-13.35L550.75-13.35ZM536.8-21.4Q534.15-21.4 532.35-19.9 530.55-18.4 530.15-15.8L530.15-15.8 543.4-15.8Q543-18.35 541.2-19.88 539.4-21.4 536.8-21.4L536.8-21.4ZM589.7-37.1L597.5-37.1 597.5 0 590.05 0 590.05-3.1Q587.15 0.4 581.65 0.4L581.65 0.4Q577.85 0.4 574.77-1.3 571.7-3 569.95-6.15 568.2-9.3 568.2-13.45L568.2-13.45Q568.2-17.6 569.95-20.75 571.7-23.9 574.77-25.6 577.85-27.3 581.65-27.3L581.65-27.3Q586.8-27.3 589.7-24.05L589.7-24.05 589.7-37.1ZM583-6Q585.95-6 587.9-8.03 589.85-10.05 589.85-13.45L589.85-13.45Q589.85-16.85 587.9-18.88 585.95-20.9 583-20.9L583-20.9Q580-20.9 578.05-18.88 576.1-16.85 576.1-13.45L576.1-13.45Q576.1-10.05 578.05-8.03 580-6 583-6L583-6ZM631.04-13.35Q631.04-13.2 630.89-11.25L630.89-11.25 610.54-11.25Q611.09-8.75 613.14-7.3 615.19-5.85 618.24-5.85L618.24-5.85Q620.34-5.85 621.97-6.48 623.59-7.1 624.99-8.45L624.99-8.45 629.14-3.95Q625.34 0.4 618.04 0.4L618.04 0.4Q613.49 0.4 609.99-1.38 606.49-3.15 604.59-6.3 602.69-9.45 602.69-13.45L602.69-13.45Q602.69-17.4 604.57-20.58 606.44-23.75 609.72-25.53 612.99-27.3 617.04-27.3L617.04-27.3Q620.99-27.3 624.19-25.6 627.39-23.9 629.22-20.73 631.04-17.55 631.04-13.35L631.04-13.35ZM617.09-21.4Q614.44-21.4 612.64-19.9 610.84-18.4 610.44-15.8L610.44-15.8 623.69-15.8Q623.29-18.35 621.49-19.88 619.69-21.4 617.09-21.4L617.09-21.4ZM654.94-26.9L662.44-26.9 651.09 0 643.04 0 631.74-26.9 639.79-26.9 647.24-8.6 654.94-26.9ZM691.24-13.35Q691.24-13.2 691.09-11.25L691.09-11.25 670.74-11.25Q671.29-8.75 673.34-7.3 675.39-5.85 678.44-5.85L678.44-5.85Q680.54-5.85 682.16-6.48 683.79-7.1 685.19-8.45L685.19-8.45 689.34-3.95Q685.54 0.4 678.24 0.4L678.24 0.4Q673.69 0.4 670.19-1.38 666.69-3.15 664.79-6.3 662.89-9.45 662.89-13.45L662.89-13.45Q662.89-17.4 664.76-20.58 666.64-23.75 669.91-25.53 673.19-27.3 677.24-27.3L677.24-27.3Q681.19-27.3 684.39-25.6 687.59-23.9 689.41-20.73 691.24-17.55 691.24-13.35L691.24-13.35ZM677.29-21.4Q674.64-21.4 672.84-19.9 671.04-18.4 670.64-15.8L670.64-15.8 683.89-15.8Q683.49-18.35 681.69-19.88 679.89-21.4 677.29-21.4L677.29-21.4ZM696.44 0L696.44-37.1 704.24-37.1 704.24 0 696.44 0ZM724.28 0.4Q720.03 0.4 716.66-1.38 713.28-3.15 711.38-6.3 709.48-9.45 709.48-13.45L709.48-13.45Q709.48-17.45 711.38-20.6 713.28-23.75 716.66-25.53 720.03-27.3 724.28-27.3L724.28-27.3Q728.53-27.3 731.88-25.53 735.23-23.75 737.13-20.6 739.03-17.45 739.03-13.45L739.03-13.45Q739.03-9.45 737.13-6.3 735.23-3.15 731.88-1.38 728.53 0.4 724.28 0.4L724.28 0.4ZM724.28-6Q727.28-6 729.21-8.03 731.13-10.05 731.13-13.45L731.13-13.45Q731.13-16.85 729.21-18.88 727.28-20.9 724.28-20.9L724.28-20.9Q721.28-20.9 719.33-18.88 717.38-16.85 717.38-13.45L717.38-13.45Q717.38-10.05 719.33-8.03 721.28-6 724.28-6L724.28-6ZM760.13-27.3Q763.88-27.3 766.96-25.58 770.03-23.85 771.78-20.73 773.53-17.6 773.53-13.45L773.53-13.45Q773.53-9.3 771.78-6.18 770.03-3.05 766.96-1.33 763.88 0.4 760.13 0.4L760.13 0.4Q754.98 0.4 752.03-2.85L752.03-2.85 752.03 9.7 744.23 9.7 744.23-26.9 751.68-26.9 751.68-23.8Q754.58-27.3 760.13-27.3L760.13-27.3ZM758.78-6Q761.78-6 763.71-8.03 765.63-10.05 765.63-13.45L765.63-13.45Q765.63-16.85 763.71-18.88 761.78-20.9 758.78-20.9L758.78-20.9Q755.78-20.9 753.86-18.88 751.93-16.85 751.93-13.45L751.93-13.45Q751.93-10.05 753.86-8.03 755.78-6 758.78-6L758.78-6ZM805.08-13.35Q805.08-13.2 804.93-11.25L804.93-11.25 784.58-11.25Q785.13-8.75 787.18-7.3 789.23-5.85 792.28-5.85L792.28-5.85Q794.38-5.85 796-6.48 797.63-7.1 799.03-8.45L799.03-8.45 803.18-3.95Q799.38 0.4 792.08 0.4L792.08 0.4Q787.53 0.4 784.03-1.38 780.53-3.15 778.63-6.3 776.73-9.45 776.73-13.45L776.73-13.45Q776.73-17.4 778.6-20.58 780.48-23.75 783.75-25.53 787.03-27.3 791.08-27.3L791.08-27.3Q795.03-27.3 798.23-25.6 801.43-23.9 803.25-20.73 805.08-17.55 805.08-13.35L805.08-13.35ZM791.13-21.4Q788.48-21.4 786.68-19.9 784.88-18.4 784.48-15.8L784.48-15.8 797.73-15.8Q797.33-18.35 795.53-19.88 793.73-21.4 791.13-21.4L791.13-21.4ZM829.88-37.1L837.68-37.1 837.68 0 830.23 0 830.23-3.1Q827.33 0.4 821.83 0.4L821.83 0.4Q818.03 0.4 814.95-1.3 811.88-3 810.13-6.15 808.38-9.3 808.38-13.45L808.38-13.45Q808.38-17.6 810.13-20.75 811.88-23.9 814.95-25.6 818.03-27.3 821.83-27.3L821.83-27.3Q826.98-27.3 829.88-24.05L829.88-24.05 829.88-37.1ZM823.18-6Q826.13-6 828.08-8.03 830.03-10.05 830.03-13.45L830.03-13.45Q830.03-16.85 828.08-18.88 826.13-20.9 823.18-20.9L823.18-20.9Q820.18-20.9 818.23-18.88 816.28-16.85 816.28-13.45L816.28-13.45Q816.28-10.05 818.23-8.03 820.18-6 823.18-6L823.18-6Z" opacity="1" transform="matrix(1,0,0,1,0,0)" fill="#fe5512" class="undefined-text-1" data-fill-palette-color="secondary" id="text-1"></path></svg></g></svg></g></svg></g></svg></g></svg></g></svg><rect width="395.52" height="80.24231501296447" fill="none" stroke="none" visibility="hidden"></rect></g></svg></g></svg>